PathFileType	4	(X/Y/Z)	D:\Long Term Storage\D'Arcy Smith\Coord18.trc
DataRate	CameraRate	NumFrames	NumMarkers	Units	OrigDataRate	OrigDataStartFrame	OrigNumFrames
120.00	120.00	      100	4	mm	120.00	2992	      4787
Frame#	Time	M1			M2			M3			M4			
		X1	Y1	Z1	X2	Y2	Z2	X3	Y3	Z3	X4	Y4	Z4	

2992	24.925	669.63788	368.78348	445.35669	976.13977	425.73276	-50.94931							
2993	24.933	668.20306	358.85812	425.64178	977.22290	432.73727	-57.11462							
2994	24.942	666.33942	349.83945	404.98370	978.00073	438.97998	-62.16841							
2995	24.950	663.66785	341.29587	384.19278	978.46661	444.33923	-65.77206							
2996	24.958	660.91333	334.87396	362.08029	979.47766	449.00989	-69.90837							
2997	24.967	657.65613	329.11584	340.42810	979.84039	452.49698	-72.43166							
2998	24.975	653.59424	325.08163	317.89609	979.85382	454.93985	-74.00969							
2999	24.983	649.68555	320.96057	296.65900	979.92279	456.40222	-74.83332							
3000	24.992	645.44708	319.18750	274.37091	979.65491	456.66071	-74.89034							
3001	25.000	640.70447	318.14688	252.62279	979.33759	455.91754	-74.12552							
3002	25.008	635.72888	317.70078	231.39027	978.92645	454.22937	-72.73221							
3003	25.017	630.63446	318.89191	210.10638	978.12170	451.56259	-70.48707							
3004	25.025	625.29950	321.01563	189.06636	977.03748	447.60321	-67.47207							
3005	25.033	620.21118	324.59085	168.22597	976.16083	443.26022	-63.39462							
3006	25.042	614.81091	328.78149	148.49483	975.38287	438.05460	-59.67798							
3007	25.050	609.39532	333.69495	129.36945	974.17340	432.02658	-54.55809							
3008	25.058	604.06012	339.43643	111.08438	973.07043	425.65414	-48.72351							
3009	25.067	598.65088	346.10068	93.74258	971.52100	418.71725	-42.15170							
3010	25.075	593.45972	353.84106	77.05901	970.42487	411.06802	-34.91017							
3011	25.083	588.33698	361.59949	61.22629	968.93713	403.09915	-26.74364							
3012	25.092	583.51624	369.06400	47.89830	967.27283	394.85138	-17.01229							
3013	25.100	579.08344	376.85596	35.36099	965.96857	386.20786	-7.93905							
3014	25.108	574.97162	384.50394	24.04964	964.33337	377.56512	3.25583							
3015	25.117	571.21515	391.94037	14.12537	963.05841	368.71762	13.83113							
3016	25.125	567.91473	398.99347	5.47256	961.61859	359.89331	26.05577							
3017	25.133	564.89996	405.60333	-2.02694	960.47620	351.57846	38.54053							
3018	25.142	562.41443	411.53296	-8.31412	959.69562	342.98581	52.56640							
3019	25.150	560.24420	416.66769	-13.36853	958.46692	334.49829	67.01018							
3020	25.158	558.69104	421.00430	-17.46376	957.32190	326.49661	82.19700							
3021	25.167	557.47797	424.52487	-20.42363	956.17816	318.99472	99.12933							
3022	25.175	556.75085	426.74191	-22.24157	955.67731	311.40833	117.47752							
3023	25.183	556.43494	428.35065	-23.10952	954.54205	305.53043	134.68808							
3024	25.192	556.70447	428.79901	-23.11740	954.29956	299.48474	152.97774							
3025	25.200	557.27118	428.15952	-22.09720	953.84241	294.49030	171.47115							
3026	25.208	558.17206	426.34741	-20.08019	954.19342	290.69360	190.59669							
3027	25.217	559.68738	423.86877	-17.35473	953.88190	287.48315	210.02867							
3028	25.225	561.28912	420.14023	-13.72552	955.10541	284.92368	229.96428							
3029	25.233	563.36292	415.73376	-9.14282	955.41907	283.57928	249.89409							
3030	25.242	565.65698	410.29440	-3.68320	955.81720	282.91678	269.79306							
3031	25.250	568.33191	404.19794	2.55565	956.45483	283.40045	289.72818							
3032	25.258	571.13586	397.30646	9.79913	957.39111	284.97964	309.04675							
3033	25.267	574.37079	389.87271	17.82823	958.34631	286.95309	329.26727							
3034	25.275	577.86157	382.32028	26.63375	959.42554	289.65137	348.57455							
3035	25.283	581.55560	373.99707	36.74918	960.93982	294.16110	367.15820							
3036	25.292	585.55115	365.56686	47.67061	961.45233	299.32465	384.83887							
3037	25.300	589.63629	356.87637	59.78180	963.06927	304.91803	402.49774							
3038	25.308	594.07013	348.22263	72.87673	964.96783	311.64694	419.69400							
3039	25.317	598.69983	339.64600	87.10408	966.49005	319.17847	436.39725							
3040	25.325	603.68121	330.89633	103.00844	968.25134	326.88162	451.44464							
3041	25.333	608.50458	323.02383	119.64534	970.07135	334.85059	466.48590							
3042	25.342	613.31964	315.84933	137.38159	971.93756	343.47009	480.57846							
3043	25.350	618.28937	308.94333	156.01936	973.68005	352.08646	493.26965							
3044	25.358	623.18054	303.53152	175.41306	975.34363	360.98291	505.16434							
3045	25.367	628.08691	299.28946	194.97693	977.07336	369.97791	516.39709							
3046	25.375	632.84253	295.68851	214.88867	978.73145	379.07037	526.59601							
3047	25.383	637.26257	292.80646	235.91394	980.35107	388.07657	535.33765							
3048	25.392	641.43268	291.69415	257.15671	981.67926	396.87421	544.41638							
3049	25.400	645.61121	290.46603	278.00668	982.83698	404.75031	551.67804							
3050	25.408	649.38055	290.88687	299.26422	983.92419	412.71115	558.30670							
3051	25.417	652.87073	292.42114	320.37662	984.32452	420.10013	564.82581							
3052	25.425	656.15057	295.09338	341.34015	985.18311	426.95465	570.38464							
3053	25.433	659.20142	299.03784	362.17255	985.86395	433.32498	575.25476							
3054	25.442	662.02484	303.68735	385.01517	986.32880	439.06323	579.33490							
3055	25.450	664.37408	309.72876	404.86597	986.25433	443.67728	583.35846							
3056	25.458	666.35706	316.77679	424.15915	986.42963	448.00510	585.98120							
3057	25.467	668.01318	324.72168	442.75146	986.47559	451.60376	588.62360							
3058	25.475	669.43451	333.58267	459.50504	986.34436	454.55234	590.37433							
3059	25.483	670.38177	342.98154	476.17154	986.17609	456.53513	591.63770							
3060	25.492	671.18579	352.76077	491.97003	985.74072	457.84109	592.36493							
3061	25.500	671.28760	363.07007	506.96457	985.23639	458.38843	592.46967							
3062	25.508	671.47510	373.79059	520.91492	984.56140	458.00467	592.08411							
3063	25.517	670.96863	384.75012	533.88934	983.69354	456.90323	591.27332							
3064	25.525	670.54370	395.82593	545.97528	982.82465	455.13306	589.75098							
3065	25.533	669.61237	407.41684	557.07672	981.77466	452.90228	588.60999							
3066	25.542	668.59235	418.62949	567.40283	980.71185	449.52890	586.32770							
3067	25.550	667.59149	429.92358	576.81812	979.74347	445.37796	582.26312							
3068	25.558	666.23511	441.14847	585.54041	978.51813	440.99844	578.94232							
3069	25.567	664.79895	451.89343	593.06927	977.27667	435.91922	574.82007							
3070	25.575	663.36523	462.74234	600.13379	975.86072	430.35974	569.89362							
3071	25.583	661.63513	472.87149	605.62158	975.09833	424.31506	564.17511							
3072	25.592	659.80237	483.47238	611.48718	973.72638	418.38034	558.18329							
3073	25.600	657.81158	492.78357	615.65222	972.41528	411.33301	551.75562							
3074	25.608	655.78442	501.54059	619.73547	970.66724	404.73273	544.64197							
3075	25.617	653.74341	509.54980	622.68652	969.84308	397.54572	535.92181							
3076	25.625	651.70654	516.89447	625.20819	968.45581	390.20731	527.32471							
3077	25.633	649.97418	522.91949	627.14362	967.22620	382.56134	517.33948							
3078	25.642	647.98029	528.23322	628.76526	965.79797	374.79361	506.79239							
3079	25.650	646.26935	532.35791	629.50494	964.11804	366.88818	496.10397							
3080	25.658	644.67102	535.48486	630.02405	963.49207	359.60559	483.46445							
3081	25.667	643.05396	537.32025	630.14001	962.61609	351.89188	471.04471							
3082	25.675	641.80304	538.23889	629.55713	961.43500	344.35623	457.40744							
3083	25.683	640.72156	537.76563	628.36731	960.76953	336.76480	441.43338							
3084	25.692	639.74078	536.21045	626.67590	960.26910	329.57217	427.63678							
3085	25.700	638.86438	533.46613	624.30847	959.68719	322.72305	411.22763							
3086	25.708	638.35388	529.47144	621.49432	959.13635	316.83386	394.72678							
3087	25.717	637.82086	524.25031	617.87909	957.94562	310.95227	378.01337							
3088	25.725	637.86188	518.12762	614.01746	958.61578	306.85229	359.57941							
3089	25.733	637.64978	510.80710	608.94427	958.50989	302.89764	341.07779							
3090	25.742	637.70056	502.26617	603.39209	958.02197	299.21259	322.49124							
3091	25.750	637.57660	492.27625	595.98151	958.42072	296.81558	302.69333							
